#!OML:ASF H:\Punching\Project 1\Capture day 1\Session 1\female.ASF
:FULLY-SPECIFIED
:DEGREES
16
root -0.288832 14.8807 -2.06208 9.6522 1.07202 0.582429
lowerback 3.67822 -2.30199 -0.452479
upperback -6.07859 -3.09152 0.628688
thorax -8.38485 -1.46743 1.25053
lowerneck -10.641 -9.76969 -4.54033
upperneck 24.0832 -12.6268 -1.04075
head 9.5811 -6.42131 -1.06495
rclavicle -1.49896e-014 -1.0138e-014
rhumerus 36.7929 10.2249 -62.1513
rradius 65.7165
rwrist 0.524097
rhand 31.9264 -36.7918
rfingers 7.12502
rthumb 55.43 -54.6148
lclavicle -1.49896e-014 -1.0138e-014
lhumerus 28.3032 -5.15112 57.4504
lradius 79.3171
lwrist -11.7044
lhand 34.9621 26.2052
lfingers 7.12502
lthumb 58.1042 41.8328
rfemur -30.6446 -7.37464 16.4997
rtibia 52.9452
rfoot -28.6192 -8.82151
rtoes -11.611
lfemur -31.4394 2.00518 -17.495
ltibia 50.9197
lfoot -24.5001 7.16031
ltoes -12.5176
17
root -0.288915 14.8803 -2.05384 9.63885 1.0206 0.590394
lowerback 3.64629 -2.2867 -0.478753
upperback -6.10176 -3.07381 0.617844
thorax -8.39085 -1.45741 1.25108
lowerneck -10.5883 -9.75905 -4.55429
upperneck 24.1117 -12.6228 -1.00331
head 9.58507 -6.41721 -1.04802
rclavicle 1.89622e-014 -1.2921e-015
rhumerus 36.7076 10.237 -62.1543
rradius 65.7091
rwrist 0.455038
rhand 31.9158 -36.8146
rfingers 7.12502
rthumb 55.4206 -54.6446
lclavicle 1.89622e-014 -1.2921e-015
lhumerus 28.2185 -5.18858 57.4988
lradius 79.3583
lwrist -11.6181
lhand 35.0177 26.2217
lfingers 7.12502
lthumb 58.1526 41.8054
rfemur -30.6143 -7.3596 16.4861
rtibia 52.953
rfoot -28.6289 -8.79527
rtoes -11.7104
lfemur -31.3794 2.00886 -17.4994
ltibia 50.922
lfoot -24.5104 7.18038
ltoes -12.5414
18
root -0.289135 14.88 -2.04577 9.6137 1.00409 0.614375
lowerback 3.62206 -2.28592 -0.517944
upperback -6.10095 -3.07684 0.602335
thorax -8.37444 -1.4572 1.25572
lowerneck -10.6219 -9.74606 -4.54857
upperneck 24.1762 -12.6142 -0.973746
head 9.61574 -6.40869 -1.04252
rclavicle -7.40473e-015 5.46658e-015
rhumerus 36.6696 10.2203 -62.1884
rradius 65.6943
rwrist 0.400963
rhand 31.9727 -36.8484
rfingers 7.12502
rthumb 55.4712 -54.6406
lclavicle -7.40473e-015 5.46658e-015
lhumerus 28.2096 -5.19645 57.5254
lradius 79.3806
lwrist -11.5325
lhand 35.1461 26.2944
lfingers 7.12502
lthumb 58.2644 41.7762
rfemur -30.5577 -7.37886 16.4558
rtibia 52.9532
rfoot -28.6298 -8.78957
rtoes -11.8566
lfemur -31.3089 1.99941 -17.5205
ltibia 50.9184
lfoot -24.536 7.18495
ltoes -12.5895
19
root -0.289006 14.8811 -2.03738 9.5962 0.98366 0.639422
lowerback 3.58298 -2.28607 -0.558993
upperback -6.10243 -3.08139 0.583877
thorax -8.35182 -1.45784 1.25781
lowerneck -10.5236 -9.72702 -4.56166
upperneck 24.1175 -12.6104 -0.88438
head 9.58387 -6.40012 -1.00249
rclavicle -8.12563e-014 -1.36167e-014
rhumerus 36.6124 10.2205 -62.2112
rradius 65.7017
rwrist 0.354407
rhand 31.983 -36.8954
rfingers 7.12502
rthumb 55.4804 -54.6808
lclavicle -8.12563e-014 -1.36167e-014
lhumerus 28.1671 -5.20257 57.5489
lradius 79.3924
lwrist -11.4423
lhand 35.2339 26.2747
lfingers 7.12502
lthumb 58.3407 41.6863
rfemur -30.5109 -7.40919 16.4246
rtibia 52.9572
rfoot -28.6488 -8.74384
rtoes -11.8855
lfemur -31.2319 1.97708 -17.5424
ltibia 50.895
lfoot -24.5494 7.19801
ltoes -12.5799
20
root -0.289455 14.8819 -2.02928 9.58801 0.990206 0.643342
lowerback 3.54283 -2.29561 -0.586983
upperback -6.12303 -3.09634 0.583364
thorax -8.34883 -1.46349 1.27314
lowerneck -10.6104 -9.71843 -4.54882
upperneck 24.3027 -12.5959 -0.917891
head 9.66219 -6.39365 -1.02593
rclavicle -3.64894e-014 -1.56046e-014
rhumerus 36.5513 10.2493 -62.2327
rradius 65.66
rwrist 0.321554
rhand 32.0062 -36.8913
rfingers 7.12502
rthumb 55.501 -54.6613
lclavicle -3.64894e-014 -1.56046e-014
lhumerus 28.1127 -5.22625 57.5784
lradius 79.4299
lwrist -11.3181
lhand 35.3542 26.3385
lfingers 7.12502
lthumb 58.4454 41.6534
rfemur -30.4614 -7.41843 16.4094
rtibia 52.95
rfoot -28.6716 -8.68267
rtoes -11.7506
lfemur -31.1719 1.93992 -17.5362
ltibia 50.8673
lfoot -24.5546 7.20892
ltoes -12.6412
21
root -0.288942 14.8822 -2.0211 9.56659 0.988093 0.667102
lowerback 3.5245 -2.30619 -0.624901
upperback -6.13508 -3.1143 0.572288
thorax -8.34939 -1.47031 1.284
lowerneck -10.6305 -9.69443 -4.53941
upperneck 24.3853 -12.5709 -0.901666
head 9.69529 -6.37874 -1.02324
rclavicle 2.68981e-014 3.37934e-015
rhumerus 36.4903 10.2762 -62.2471
rradius 65.6615
rwrist 0.247258
rhand 32.0713 -36.9645
rfingers 7.12502
rthumb 55.5589 -54.691
lclavicle 2.68981e-014 3.37934e-015
lhumerus 28.0458 -5.23426 57.5941
lradius 79.4683
lwrist -11.167
lhand 35.3733 26.4169
lfingers 7.12502
lthumb 58.4619 41.7165
rfemur -30.3887 -7.46304 16.3756
rtibia 52.9361
rfoot -28.6944 -8.65587
rtoes -11.7724
lfemur -31.0899 1.89875 -17.5584
ltibia 50.8392
lfoot -24.5728 7.24428
ltoes -12.6788
22
root -0.288598 14.8839 -2.01294 9.53904 0.991541 0.67785
lowerback 3.50037 -2.315 -0.641695
upperback -6.13539 -3.1285 0.555536
thorax -8.33528 -1.47705 1.27606
lowerneck -10.6646 -9.67918 -4.52158
upperneck 24.4686 -12.5592 -0.885498
head 9.73089 -6.36904 -1.02426
rclavicle 1.47753e-014 4.27387e-015
rhumerus 36.4534 10.2863 -62.2644
rradius 65.6532
rwrist 0.214131
rhand 32.1237 -36.9559
rfingers 7.12502
rthumb 55.6054 -54.6474
lclavicle 1.47753e-014 4.27387e-015
lhumerus 28.0284 -5.25999 57.5825
lradius 79.5148
lwrist -11.0196
lhand 35.4655 26.4306
lfingers 7.12502
lthumb 58.542 41.6555
rfemur -30.309 -7.49138 16.3569
rtibia 52.9128
rfoot -28.7197 -8.61592
rtoes -11.708
lfemur -31.0037 1.86238 -17.5649
ltibia 50.8106
lfoot -24.5896 7.27314
ltoes -12.7412
23
root -0.288473 14.8839 -2.00476 9.52479 0.960974 0.634825
lowerback 3.47268 -2.3174 -0.622836
upperback -6.14804 -3.12943 0.566435
thorax -8.33311 -1.47836 1.27617
lowerneck -10.7011 -9.66421 -4.52445
upperneck 24.569 -12.5413 -0.881531
head 9.77376 -6.35945 -1.02632
rclavicle -2.41927e-014 -1.00386e-014
rhumerus 36.4104 10.3389 -62.2723
rradius 65.6322
rwrist 0.177471
rhand 32.14 -36.9733
rfingers 7.12502
rthumb 55.6199 -54.6539
lclavicle -2.41927e-014 -1.00386e-014
lhumerus 27.9557 -5.27603 57.5869
lradius 79.5159
lwrist -10.9028
lhand 35.3481 26.5198
lfingers 7.12502
lthumb 58.44 41.8397
rfemur -30.2508 -7.47413 16.4004
rtibia 52.8855
rfoot -28.7226 -8.61795
rtoes -11.8279
lfemur -30.9395 1.86794 -17.5129
ltibia 50.7955
lfoot -24.6078 7.27781
ltoes -12.7149
24
root -0.287858 14.8858 -1.99665 9.51321 0.978608 0.627425
lowerback 3.40765 -2.32366 -0.604932
upperback -6.13323 -3.13711 0.550547
thorax -8.28046 -1.48461 1.24662
lowerneck -10.7244 -9.65387 -4.52076
upperneck 24.6277 -12.5357 -0.854475
head 9.80064 -6.3528 -1.02077
rclavicle -2.07078e-014 5.26779e-015
rhumerus 36.3832 10.3212 -62.2622
rradius 65.6388
rwrist 0.152508
rhand 32.2571 -37.0203
rfingers 7.12502
rthumb 55.7239 -54.6221
lclavicle -2.07078e-014 5.26779e-015
lhumerus 27.9674 -5.31114 57.576
lradius 79.5506
lwrist -10.798
lhand 35.3683 26.618
lfingers 7.12502
lthumb 58.4575 41.9217
rfemur -30.1737 -7.52874 16.4175
rtibia 52.8538
rfoot -28.7368 -8.65997
rtoes -12.0286
lfemur -30.8799 1.83069 -17.5013
ltibia 50.776
lfoot -24.6269 7.29156
ltoes -12.8115
25
root -0.288325 14.8862 -1.99 9.50653 0.95085 0.619506
lowerback 3.37087 -2.32153 -0.626117
upperback -6.13544 -3.13586 0.547318
thorax -8.26032 -1.48309 1.25315
lowerneck -10.7522 -9.64209 -4.51552
upperneck 24.6986 -12.5262 -0.838125
head 9.83181 -6.34528 -1.01926
rclavicle -5.16561e-014 -3.47873e-015
rhumerus 36.371 10.343 -62.2607
rradius 65.6024
rwrist 0.15435
rhand 32.3274 -37.0412
rfingers 7.12502
rthumb 55.7863 -54.5954
lclavicle -5.16561e-014 -3.47873e-015
lhumerus 27.9472 -5.32414 57.579
lradius 79.5359
lwrist -10.7603
lhand 35.355 26.6085
lfingers 7.12502
lthumb 58.446 41.9228
rfemur -30.1341 -7.5026 16.4246
rtibia 52.8218
rfoot -28.7292 -8.68124
rtoes -12.079
lfemur -30.8309 1.83495 -17.4842
ltibia 50.7638
lfoot -24.644 7.29287
ltoes -12.7871
